<svg width="41" height="42" viewBox="0 0 41 42" fill="none" xmlns="http://www.w3.org/2000/svg">
<g clip-path="url(#clip0_149_357)">
<path d="M13.2929 14.9942C13.2935 15.0671 13.2941 15.1401 13.2948 15.2152C13.3011 15.9066 13.3081 16.598 13.3159 17.2895C13.3199 17.6448 13.3236 18.0002 13.3266 18.3555C13.3296 18.6993 13.3333 19.043 13.3375 19.3867C13.339 19.5171 13.3402 19.6474 13.3412 19.7777C13.3514 21.143 13.4203 22.4496 14.3789 23.5175C15.091 24.1555 16.0211 24.5245 16.9764 24.5235C17.636 24.461 18.1698 24.288 18.7582 23.993C18.832 23.9572 18.9058 23.9213 18.9818 23.8844C19.3926 23.6834 19.7951 23.477 20.1868 23.2405C21.9081 22.2046 23.3662 22.0204 25.3504 22.0713C25.7251 22.0795 26.0998 22.0801 26.4745 22.0816C27.1796 22.0855 27.8844 22.096 28.5893 22.109C29.3938 22.1234 30.1983 22.1304 31.0029 22.1368C32.6537 22.15 34.3043 22.1725 35.955 22.2012C36.1071 22.8176 36.1385 23.4037 36.1371 24.0368C36.1377 24.1876 36.1377 24.1876 36.1384 24.3414C36.1393 24.6149 36.1395 24.8884 36.1393 25.1619C36.1392 25.3915 36.1396 25.6211 36.14 25.8507C36.1408 26.3933 36.1409 26.9358 36.1404 27.4783C36.1399 28.0349 36.1409 28.5915 36.1426 29.1481C36.144 29.6286 36.1445 30.1091 36.1442 30.5896C36.1441 30.8754 36.1443 31.1612 36.1454 31.447C36.1536 33.7227 36.1536 33.7227 35.8749 34.6934C35.8471 34.7931 35.8194 34.8929 35.7908 34.9956C35.4495 36.1681 34.8542 37.3114 34.0331 38.2169C33.9792 38.2811 33.9253 38.3453 33.8698 38.4114C32.4003 40.1267 30.3395 41.1848 28.1073 41.5001C27.8975 41.5076 27.6898 41.5116 27.48 41.5113C27.3875 41.5117 27.3875 41.5117 27.293 41.512C27.0871 41.5127 26.8811 41.5128 26.6751 41.513C26.5271 41.5133 26.3791 41.5137 26.2311 41.5142C25.8293 41.5152 25.4276 41.5157 25.0258 41.5161C24.7744 41.5163 24.523 41.5166 24.2716 41.517C23.4838 41.5181 22.696 41.5189 21.9082 41.5192C21.0011 41.5195 20.094 41.5209 19.1868 41.5233C18.4843 41.525 17.7818 41.5258 17.0792 41.5259C16.6603 41.526 16.2414 41.5265 15.8225 41.5279C15.4278 41.5292 15.0331 41.5294 14.6384 41.5287C14.4944 41.5286 14.3504 41.529 14.2064 41.5298C12.018 41.5412 9.81768 40.9179 8.16785 39.418C8.10086 39.3604 8.03386 39.3028 7.96484 39.2435C6.31081 37.8015 5.09827 35.7059 4.88465 33.4922C4.87227 33.1564 4.87206 32.8207 4.87174 32.4847C4.87135 32.3842 4.87095 32.2838 4.87054 32.1802C4.86957 31.9057 4.86897 31.6312 4.86862 31.3567C4.86838 31.1846 4.86805 31.0125 4.8677 30.8404C4.8666 30.3002 4.86583 29.7601 4.86552 29.2199C4.86516 28.5996 4.86376 27.9793 4.86143 27.359C4.85969 26.8775 4.85889 26.396 4.85879 25.9144C4.8587 25.6278 4.85825 25.3412 4.8568 25.0546C4.84594 22.7697 4.84594 22.7697 5.12488 21.8008C5.15263 21.7012 5.18038 21.6015 5.20896 21.4988C5.59366 20.1774 6.29644 18.9822 7.20691 17.9571C7.27009 17.8859 7.33326 17.8146 7.39835 17.7413C8.85693 16.2006 11.1317 14.9719 13.2929 14.9942ZM13.5331 25.084C13.2347 25.6325 13.2583 26.2471 13.2659 26.8547C13.2678 27.0162 13.2676 27.1776 13.267 27.3391C13.2527 28.2279 13.2527 28.2279 13.6482 28.9929C14.0176 29.3082 14.221 29.3639 14.6936 29.3535C14.9899 29.3161 15.1553 29.206 15.3749 29.0079C15.7801 28.4629 15.7101 27.8317 15.71 27.1813C15.7102 27.017 15.7117 26.8527 15.7132 26.6884C15.7133 26.5836 15.7135 26.4789 15.7137 26.3709C15.714 26.2758 15.7143 26.1806 15.7146 26.0826C15.685 25.6593 15.6202 25.3425 15.3398 25.019C14.9744 24.707 14.7689 24.6419 14.2998 24.6542C13.9582 24.703 13.761 24.8301 13.5331 25.084ZM25.5448 25.084C25.2464 25.6325 25.27 26.2471 25.2777 26.8547C25.2795 27.0162 25.2793 27.1776 25.2788 27.3391C25.2644 28.2279 25.2644 28.2279 25.6599 28.9929C26.0294 29.3082 26.2327 29.3639 26.7053 29.3535C27.0016 29.3161 27.167 29.206 27.3866 29.0079C27.7919 28.4629 27.7218 27.8317 27.7218 27.1813C27.7219 27.017 27.7234 26.8527 27.7249 26.6884C27.7251 26.5836 27.7252 26.4789 27.7254 26.3709C27.7257 26.2758 27.726 26.1806 27.7264 26.0826C27.6967 25.6593 27.6319 25.3425 27.3516 25.019C26.9861 24.707 26.7806 24.6419 26.3115 24.6542C25.9699 24.703 25.7727 24.8301 25.5448 25.084ZM17.1366 32.2911C16.9187 32.6488 16.9243 33.0048 16.9764 33.4122C17.1521 33.77 17.3358 33.9654 17.6971 34.1329C17.9934 34.2061 18.2705 34.2235 18.5752 34.2246C18.7167 34.2253 18.7167 34.2253 18.8611 34.2261C18.9623 34.2262 19.0636 34.2263 19.168 34.2264C19.3251 34.2268 19.3251 34.2268 19.4854 34.2272C19.7068 34.2277 19.9283 34.2278 20.1497 34.2278C20.4324 34.2278 20.715 34.2289 20.9976 34.2302C21.2686 34.2314 21.5395 34.2313 21.8105 34.2314C21.962 34.2323 21.962 34.2323 22.1164 34.2331C22.9649 34.2464 22.9649 34.2464 23.688 33.8576C24.0034 33.4882 24.059 33.2848 24.0487 32.8122C24.0113 32.5159 23.9011 32.3505 23.703 32.1309C23.3017 31.8325 22.9136 31.8008 22.4246 31.799C22.2831 31.7982 22.2831 31.7982 22.1387 31.7974C22.0374 31.7973 21.9361 31.7972 21.8318 31.7972C21.7271 31.7969 21.6223 31.7966 21.5144 31.7963C21.2929 31.7959 21.0715 31.7957 20.85 31.7958C20.5674 31.7958 20.2848 31.7947 20.0022 31.7933C19.7312 31.7922 19.4602 31.7922 19.1892 31.7921C19.0378 31.7913 19.0378 31.7913 18.8833 31.7904C17.9266 31.7922 17.9266 31.7922 17.1366 32.2911Z" fill="#286996"/>
<path d="M21.5632 0.466429C21.727 0.465841 21.8907 0.465153 22.0544 0.464374C22.4972 0.462601 22.9399 0.46236 23.3827 0.462512C23.7534 0.462521 24.1241 0.461834 24.4948 0.461168C25.3701 0.45963 26.2454 0.459396 27.1207 0.459938C28.021 0.46047 28.9213 0.458641 29.8217 0.455669C30.5969 0.453204 31.3721 0.452302 32.1474 0.452613C32.6094 0.452778 33.0714 0.45235 33.5334 0.450379C33.9683 0.448585 34.4032 0.448756 34.8382 0.450374C34.9969 0.450645 35.1556 0.450248 35.3142 0.449094C37.0584 0.437297 38.3704 0.856461 39.6391 2.10162C39.6903 2.15086 39.7415 2.2001 39.7942 2.25083C40.7259 3.22202 41.0372 4.51053 41.034 5.81624C41.0347 5.91975 41.0354 6.02326 41.0361 6.12991C41.0379 6.41137 41.0381 6.69281 41.038 6.97428C41.038 7.21064 41.0386 7.447 41.0393 7.68336C41.0408 8.24192 41.0411 8.80047 41.0405 9.35903C41.04 9.93186 41.0418 10.5047 41.0448 11.0775C41.0473 11.5722 41.0482 12.0669 41.0479 12.5616C41.0477 12.8558 41.0481 13.15 41.0501 13.4441C41.0627 15.4686 40.8679 16.9407 39.3989 18.4376C39.325 18.5144 39.325 18.5144 39.2497 18.5927C38.3638 19.4425 37.1514 19.8318 35.9461 19.8123C35.7565 19.8079 35.567 19.8023 35.3774 19.7967C35.2397 19.7936 35.1019 19.7906 34.9641 19.7878C34.6682 19.7817 34.3723 19.7751 34.0764 19.7681C33.6031 19.7575 33.1299 19.7512 32.6565 19.7459C32.576 19.745 32.4954 19.7441 32.4125 19.7431C32.0801 19.7395 31.7478 19.7359 31.4154 19.7324C30.4831 19.7222 29.5512 19.7083 28.6191 19.6828C27.6353 19.6564 26.6518 19.6415 25.6677 19.6431C25.5877 19.6432 25.5078 19.6433 25.4255 19.6435C22.5854 19.6555 20.3505 20.2213 18.0003 21.8515C17.4762 22.202 17.045 22.2942 16.4164 22.2012C16.0488 22.0271 15.8691 21.8446 15.6957 21.4805C15.6727 21.2497 15.6626 21.0363 15.6642 20.8056C15.6637 20.7378 15.6632 20.6701 15.6627 20.6002C15.6613 20.3732 15.6617 20.1461 15.6621 19.9191C15.6615 19.7562 15.6608 19.5933 15.6601 19.4305C15.6583 18.9878 15.658 18.5452 15.6582 18.1026C15.6582 17.7325 15.6575 17.3624 15.6568 16.9923C15.6553 16.1183 15.6551 15.2442 15.6556 14.3702C15.6561 13.4707 15.6543 12.5712 15.6513 11.6717C15.6489 10.8982 15.648 10.1246 15.6483 9.35109C15.6485 8.88969 15.648 8.42832 15.6461 7.96692C15.6443 7.53212 15.6444 7.09736 15.6461 6.66256C15.6463 6.50388 15.6459 6.3452 15.6448 6.18652C15.633 4.44219 16.052 3.13022 17.2973 1.86138C17.3465 1.81018 17.3958 1.75898 17.4465 1.70623C18.6017 0.598068 20.0484 0.463849 21.5632 0.466429ZM20.8207 7.06646C20.6029 7.42423 20.6085 7.7802 20.6606 8.18756C20.8362 8.54535 21.0199 8.74079 21.3813 8.90826C21.6987 8.98858 21.9978 8.99859 22.3246 8.99904C22.405 8.99932 22.405 8.99932 22.487 8.99959C22.6659 9.0001 22.8448 9.00004 23.0238 8.99997C23.1523 9.00021 23.2809 9.00048 23.4094 9.00078C23.7582 9.00149 24.1069 9.00168 24.4557 9.00173C24.6737 9.00179 24.8917 9.00196 25.1097 9.00217C25.8705 9.00291 26.6312 9.00324 27.392 9.00318C28.1008 9.00313 28.8095 9.00397 29.5182 9.00524C30.1271 9.00628 30.736 9.00671 31.3449 9.00666C31.7084 9.00664 32.0718 9.00687 32.4353 9.00772C32.7772 9.00849 33.1191 9.0085 33.4611 9.00792C33.5863 9.00783 33.7116 9.00802 33.8369 9.00851C34.0083 9.00913 34.1798 9.00875 34.3512 9.00813C34.447 9.00818 34.5428 9.00822 34.6415 9.00827C35.0626 8.97752 35.3784 8.91196 35.7003 8.63299C36.0156 8.26356 36.0713 8.06022 36.0609 7.58759C36.0235 7.2913 35.9134 7.12587 35.7153 6.90631C35.2932 6.59246 34.8849 6.576 34.3715 6.57529C34.318 6.5751 34.2644 6.57492 34.2092 6.57474C34.0302 6.57423 33.8513 6.57429 33.6724 6.57436C33.5438 6.57412 33.4153 6.57385 33.2868 6.57355C32.938 6.57284 32.5892 6.57265 32.2404 6.5726C32.0225 6.57254 31.8045 6.57237 31.5865 6.57216C30.8257 6.57142 30.0649 6.57109 29.3041 6.57115C28.5954 6.5712 27.8867 6.57036 27.1779 6.56909C26.569 6.56805 25.9602 6.56762 25.3513 6.56767C24.9878 6.56769 24.6243 6.56746 24.2608 6.56661C23.9189 6.56584 23.577 6.56583 23.2351 6.56641C23.1098 6.5665 22.9845 6.56631 22.8593 6.56582C22.6878 6.5652 22.5164 6.56558 22.345 6.56619C22.2491 6.56615 22.1533 6.56611 22.0546 6.56606C21.5575 6.60236 21.1812 6.7163 20.8207 7.06646ZM20.8207 11.8712C20.6029 12.2289 20.6085 12.5849 20.6606 12.9922C20.8362 13.35 21.0199 13.5455 21.3813 13.7129C21.6987 13.7933 21.9978 13.8033 22.3246 13.8037C22.405 13.804 22.405 13.804 22.487 13.8043C22.6659 13.8048 22.8448 13.8047 23.0238 13.8047C23.1523 13.8049 23.2809 13.8052 23.4094 13.8055C23.7582 13.8062 24.1069 13.8064 24.4557 13.8064C24.6737 13.8065 24.8917 13.8066 25.1097 13.8069C25.8705 13.8076 26.6312 13.8079 27.392 13.8079C28.1008 13.8078 28.8095 13.8087 29.5182 13.8099C30.1271 13.811 30.736 13.8114 31.3449 13.8114C31.7084 13.8113 32.0718 13.8116 32.4353 13.8124C32.7772 13.8132 33.1191 13.8132 33.4611 13.8126C33.5863 13.8125 33.7116 13.8127 33.8369 13.8132C34.0083 13.8138 34.1798 13.8134 34.3512 13.8128C34.447 13.8129 34.5428 13.8129 34.6415 13.813C35.0626 13.7822 35.3784 13.7166 35.7003 13.4377C36.0156 13.0682 36.0713 12.8649 36.0609 12.3923C36.0235 12.096 35.9134 11.9306 35.7153 11.711C35.2932 11.3972 34.8849 11.3807 34.3715 11.38C34.318 11.3798 34.2644 11.3796 34.2092 11.3794C34.0302 11.3789 33.8513 11.379 33.6724 11.379C33.5438 11.3788 33.4153 11.3785 33.2868 11.3782C32.938 11.3775 32.5892 11.3773 32.2404 11.3773C32.0225 11.3772 31.8045 11.3771 31.5865 11.3768C30.8257 11.3761 30.0649 11.3758 29.3041 11.3758C28.5954 11.3759 27.8867 11.375 27.1779 11.3738C26.569 11.3727 25.9602 11.3723 25.3513 11.3724C24.9878 11.3724 24.6243 11.3721 24.2608 11.3713C23.9189 11.3705 23.577 11.3705 23.2351 11.3711C23.1098 11.3712 22.9845 11.371 22.8593 11.3705C22.6878 11.3699 22.5164 11.3703 22.345 11.3709C22.2491 11.3708 22.1533 11.3708 22.0546 11.3708C21.5575 11.407 21.1812 11.521 20.8207 11.8712Z" fill="#286996"/>
<path d="M5.73203 8.31923C6.49074 8.8757 7.08948 9.65204 7.28729 10.5899C7.39112 11.7116 7.30037 12.6956 6.61664 13.6278C6.24023 14.0706 5.87115 14.3917 5.34696 14.6476C5.27531 14.6828 5.20365 14.7179 5.12982 14.7542C5.07544 14.7805 5.02106 14.8069 4.96503 14.834C4.96596 14.9046 4.96689 14.9752 4.96784 15.0479C4.9698 15.3141 4.96884 15.58 4.96601 15.8462C4.96536 15.9606 4.96583 16.075 4.96749 16.1894C4.97732 16.9269 4.89857 17.4178 4.40593 18.0039C4.18181 18.2721 4.04361 18.5621 3.89899 18.878C3.58452 19.5537 3.58452 19.5537 3.36347 19.7188C3.0172 19.8406 2.77414 19.8789 2.40253 19.8789C2.40253 18.1877 2.40253 16.4964 2.40253 14.7539C2.2704 14.7275 2.13827 14.7011 2.00214 14.6739C1.08903 14.1674 0.411479 13.3712 0.115846 12.3595C-0.102921 11.3263 0.0461943 10.23 0.612346 9.34241C1.80196 7.72046 4.00584 7.21813 5.73203 8.31923Z" fill="#286996"/>
<path d="M2.64228 22.2812C2.63991 22.3339 2.63753 22.3866 2.63509 22.4409C2.55487 24.2984 2.54973 26.1548 2.55176 28.0139C2.55222 28.4388 2.55195 28.8637 2.55148 29.2886C2.55118 29.6228 2.55128 29.9571 2.55149 30.2914C2.55154 30.4479 2.55148 30.6044 2.55129 30.7608C2.55022 31.8868 2.58506 33.0084 2.64228 34.1328C2.52678 34.0956 2.41139 34.0581 2.29604 34.0204C2.23177 33.9996 2.1675 33.9787 2.10129 33.9572C1.15995 33.6187 0.589816 32.8098 0.172996 31.9494C0.00863349 31.5633 -0.0132521 31.2193 -0.015743 30.8022C-0.0163979 30.7414 -0.0170527 30.6805 -0.0177274 30.6178C-0.0197124 30.4166 -0.0210394 30.2154 -0.0221947 30.0141C-0.022621 29.945 -0.0230473 29.8759 -0.0234865 29.8048C-0.0256256 29.4386 -0.0271771 29.0723 -0.0283335 28.7061C-0.0293979 28.4047 -0.0316216 28.1033 -0.0349024 27.8019C-0.0388785 27.4365 -0.0408386 27.0712 -0.0414044 26.7057C-0.0419379 26.5674 -0.0431461 26.429 -0.0450792 26.2906C-0.0619847 25.0065 0.178347 24.0689 1.08733 23.1083C1.46324 22.7534 2.11446 22.2812 2.64228 22.2812Z" fill="#286996"/>
<path d="M38.3574 22.2812C38.4729 22.3184 38.5883 22.356 38.7037 22.3936C38.8001 22.4249 38.8001 22.4249 38.8984 22.4569C39.8398 22.7953 40.4099 23.6042 40.8267 24.4646C40.9911 24.8507 41.013 25.1948 41.0154 25.6118C41.0164 25.7031 41.0164 25.7031 41.0174 25.7962C41.0194 25.9975 41.0207 26.1987 41.0219 26.4C41.0223 26.469 41.0227 26.5381 41.0232 26.6093C41.0253 26.9755 41.0269 27.3417 41.028 27.7079C41.0291 28.0094 41.0313 28.3108 41.0346 28.6122C41.0386 28.9776 41.0405 29.3429 41.0411 29.7083C41.0416 29.8467 41.0428 29.9851 41.0448 30.1235C41.0617 31.4076 40.8214 32.3452 39.9124 33.3058C39.5365 33.6606 38.8852 34.1328 38.3574 34.1328C38.3598 34.0869 38.3622 34.0409 38.3646 33.9936C38.4249 32.7982 38.4495 31.6063 38.4481 30.4095C38.4482 30.2354 38.4483 30.0613 38.4484 29.8872C38.4485 29.5255 38.4483 29.1638 38.4479 28.8021C38.4475 28.3445 38.4477 27.8868 38.4482 27.4291C38.4485 27.0705 38.4484 26.712 38.4482 26.3534C38.4482 26.1849 38.4482 26.0164 38.4484 25.8479C38.4495 24.6571 38.4158 23.4706 38.3574 22.2812Z" fill="#286996"/>
</g>
<defs>
<clipPath id="clip0_149_357">
<rect width="41" height="41" fill="white" transform="translate(0 0.5)"/>
</clipPath>
</defs>
</svg>
