<svg width="43" height="40" viewBox="0 0 43 40" fill="none" xmlns="http://www.w3.org/2000/svg">
<path d="M9.5 9H12.5557C13.1767 9 13.7871 8.849 14.3541 8.59577C19.118 6.46808 23.882 6.46808 28.6459 8.59577C29.2129 8.849 29.8233 9 30.4443 9H33.5" stroke="#286996" stroke-width="3" stroke-linecap="round" stroke-linejoin="round"/>
<path d="M9.5 31H12.5557C13.1767 31 13.7871 30.849 14.3541 30.5958C19.118 28.4681 23.882 28.4681 28.6459 30.5958C29.2129 30.849 29.8233 31 30.4443 31H33.5" stroke="#286996" stroke-width="3" stroke-linecap="round" stroke-linejoin="round"/>
<path d="M9.5 2V16M33.5 2V16" stroke="#286996" stroke-width="3" stroke-linecap="round" stroke-linejoin="round"/>
<path d="M9.5 24V38M33.5 24V38" stroke="#286996" stroke-width="3" stroke-linecap="round" stroke-linejoin="round"/>
<path d="M4.5 9H1.5M38.5 9H41.5" stroke="#286996" stroke-width="3" stroke-linecap="round" stroke-linejoin="round"/>
<path d="M4.5 31H1.5M38.5 31H41.5" stroke="#286996" stroke-width="3" stroke-linecap="round" stroke-linejoin="round"/>
<path d="M4.5 5V13M38.5 5V13" stroke="#286996" stroke-width="3" stroke-linecap="round" stroke-linejoin="round"/>
<path d="M4.5 27V35M38.5 27V35" stroke="#286996" stroke-width="3" stroke-linecap="round" stroke-linejoin="round"/>
</svg>
