<svg width="50" height="50" viewBox="0 0 50 50" fill="none" xmlns="http://www.w3.org/2000/svg">
<path fill-rule="evenodd" clip-rule="evenodd" d="M23.7369 5.05718C24.507 4.56427 25.4935 4.56427 26.2637 5.05718L45.7949 17.5572C46.8852 18.2549 47.2034 19.7044 46.5056 20.7947C45.8079 21.8849 44.3584 22.2031 43.2681 21.5053L41.4065 20.3139V39.0625C41.4065 42.5143 38.6083 45.3125 35.1565 45.3125H14.844C11.3923 45.3125 8.59404 42.5143 8.59404 39.0625V20.3139L6.73245 21.5053C5.6422 22.2031 4.19273 21.8849 3.49497 20.7947C2.79721 19.7044 3.11538 18.2549 4.20563 17.5572L23.7369 5.05718ZM17.1878 27.7344C17.1878 28.8893 17.6434 29.9377 18.3847 30.7098L23.8809 36.3511C24.4943 36.9807 25.5061 36.9806 26.1194 36.3509L31.5047 30.8215C32.3114 30.0404 32.8128 28.9459 32.8128 27.7344C32.8128 25.3613 30.889 23.4375 28.5159 23.4375C27.0627 23.4375 25.7779 25.0379 25.0003 26.1421C24.2227 25.0379 22.9379 23.4375 21.4847 23.4375C19.1116 23.4375 17.1878 25.3613 17.1878 27.7344Z" fill="#286996"/>
</svg>
