<svg width="46" height="46" viewBox="0 0 46 46" fill="none" xmlns="http://www.w3.org/2000/svg">
<g clip-path="url(#clip0_149_360)">
<path d="M19.093 0.979921C19.2884 1.10591 19.4743 1.239 19.6598 1.37886C19.736 1.42962 19.8121 1.48038 19.8906 1.53267C20.4698 2.08146 20.8029 2.74597 21.0661 3.48824C21.1244 3.63485 21.1829 3.78135 21.2419 3.92769C21.3308 3.92823 21.3308 3.92823 21.4216 3.92878C21.695 3.93171 21.9683 3.93792 22.2416 3.94417C22.3349 3.94468 22.4281 3.94519 22.5242 3.94571C23.2846 3.96671 23.862 4.14275 24.4475 4.6394C24.5166 4.72488 24.5166 4.72488 24.5872 4.81209C24.6354 4.8693 24.6835 4.92652 24.7331 4.98547C24.8489 5.16356 24.8873 5.30451 24.9333 5.50972C25.0225 5.50884 25.0225 5.50884 25.1136 5.50795C25.7368 5.50208 26.3599 5.49812 26.983 5.49524C27.2151 5.49392 27.4473 5.49212 27.6794 5.48983C28.0143 5.48661 28.3492 5.48513 28.6841 5.48397C28.7867 5.48261 28.8894 5.48125 28.9952 5.47985C30.313 5.47958 31.4197 5.87672 32.3813 6.7886C32.6916 7.12518 32.9029 7.47545 33.1071 7.88277C33.1397 7.94598 33.1722 8.00919 33.2058 8.07432C33.5698 8.90755 33.4973 9.77789 33.4806 10.6678C33.4789 10.8328 33.4773 10.9977 33.4758 11.1627C33.472 11.5636 33.4659 11.9644 33.4587 12.3652C33.5132 12.3829 33.5678 12.4006 33.624 12.4189C33.6954 12.4423 33.7669 12.4658 33.8405 12.4899C33.9113 12.5131 33.9822 12.5363 34.0552 12.5601C34.8155 12.8289 35.4481 13.4757 36.0075 14.0351C36.1573 14.0522 36.3071 14.0689 36.4572 14.0829C37.8323 14.216 39.0018 14.7034 39.9076 15.7819C40.2204 16.2009 40.4682 16.6273 40.6657 17.1113C40.7078 17.2144 40.7078 17.2144 40.7508 17.3197C40.8866 17.7226 40.9364 18.076 40.9112 18.4993C40.828 19.351 40.828 19.351 41.1251 20.1167C41.3736 20.3304 41.632 20.521 41.8962 20.7148C42.827 21.7797 42.9267 23.102 42.8795 24.4475C42.8452 24.9087 42.7063 25.3091 42.5114 25.7246C42.4779 25.797 42.4443 25.8694 42.4098 25.9439C42.3305 26.1072 42.2459 26.2679 42.1598 26.4277C42.2078 26.4865 42.2557 26.5453 42.3051 26.6059C43.6793 28.3559 44.6012 30.5827 44.6338 32.8245C44.6356 32.9307 44.6375 33.0369 44.6394 33.1463C44.6416 33.3585 44.6409 33.5707 44.6369 33.7829C44.6246 34.314 44.6246 34.314 44.8438 34.7769C45.0043 34.9155 45.0043 34.9155 45.1745 35.019C45.3608 35.156 45.4119 35.2671 45.4997 35.4804C45.5232 35.6773 45.5232 35.6773 45.5252 35.8947C45.5263 35.9767 45.5275 36.0586 45.5286 36.1431C45.5289 36.2754 45.5289 36.2754 45.5292 36.4105C45.5298 36.5025 45.5304 36.5944 45.531 36.6892C45.5319 36.8843 45.5323 37.0794 45.5323 37.2745C45.5326 37.5689 45.5358 37.8631 45.5392 38.1575C45.5463 39.4817 45.4498 40.6452 44.8185 41.836C44.7734 41.9234 44.7734 41.9234 44.7274 42.0126C44.4562 42.5218 44.1309 42.9642 43.7419 43.3906C43.6964 43.4441 43.651 43.4975 43.6042 43.5526C42.596 44.6645 40.9355 45.4146 39.4548 45.5246C39.0707 45.5373 38.6866 45.5356 38.3024 45.534C38.1539 45.5344 38.0055 45.5349 37.8571 45.5355C37.4516 45.5367 37.0462 45.5364 36.6408 45.5357C36.2025 45.5353 35.7643 45.5364 35.3261 45.5373C34.4687 45.5388 33.6112 45.5389 32.7537 45.5384C32.0567 45.5381 31.3596 45.5382 30.6625 45.5387C30.5632 45.5387 30.4639 45.5388 30.3616 45.5389C30.1598 45.539 29.958 45.5391 29.7562 45.5393C27.8654 45.5405 25.9745 45.54 24.0837 45.539C22.3547 45.5381 20.6257 45.5393 18.8968 45.5414C17.1201 45.5435 15.3435 45.5443 13.5669 45.5438C12.5699 45.5435 11.573 45.5436 10.5761 45.5452C9.72757 45.5465 8.87906 45.5465 8.03054 45.545C7.59785 45.5443 7.16518 45.5441 6.73249 45.5454C6.33596 45.5466 5.93947 45.5462 5.54294 45.5445C5.39994 45.5442 5.25693 45.5444 5.11394 45.5454C3.80564 45.5532 2.74873 45.3057 1.75762 44.4068C1.69054 44.3325 1.62347 44.2582 1.55437 44.1816C1.51211 44.1397 1.46985 44.0978 1.42631 44.0546C0.832851 43.4326 0.489215 42.5496 0.487885 41.6967C0.487678 41.6403 0.487472 41.5839 0.487259 41.5257C0.48667 41.3354 0.48671 41.1452 0.486746 40.9549C0.486456 40.8176 0.486129 40.6803 0.485767 40.543C0.484886 40.1646 0.48456 39.7863 0.484327 39.408C0.483984 39.0003 0.483142 38.5927 0.482374 38.185C0.480636 37.1999 0.479752 36.2148 0.478971 35.2297C0.478585 34.7658 0.478114 34.302 0.477654 33.8381C0.476158 32.2963 0.474884 30.7544 0.474247 29.2126C0.474079 28.8124 0.473911 28.4121 0.473739 28.0119C0.473696 27.9124 0.473654 27.8129 0.47361 27.7104C0.472881 26.0993 0.470654 24.4881 0.467799 22.8769C0.464892 21.223 0.46331 19.569 0.463029 17.9151C0.462839 16.9864 0.462069 16.0577 0.459824 15.129C0.457915 14.338 0.457208 13.5469 0.458063 12.7559C0.458462 12.3524 0.458297 11.949 0.45659 11.5455C0.45504 11.1757 0.455129 10.806 0.456494 10.4362C0.456702 10.3028 0.456322 10.1694 0.455277 10.036C0.445841 8.75127 0.770594 7.63309 1.66423 6.67427C2.46801 5.92361 3.5065 5.49726 4.6049 5.49974C4.75266 5.49975 4.75266 5.49975 4.9034 5.49976C5.00879 5.50022 5.11419 5.50067 5.22277 5.50114C5.3314 5.50126 5.44002 5.50139 5.55194 5.50152C5.83962 5.50192 6.12729 5.50271 6.41497 5.50369C6.70896 5.50459 7.00296 5.50498 7.29696 5.50543C7.873 5.5064 8.44903 5.50787 9.02507 5.50972C9.05152 5.42629 9.07797 5.34286 9.10522 5.25691C9.19847 4.98923 9.27276 4.86056 9.47002 4.66377C9.51636 4.61551 9.56269 4.56725 9.61044 4.51752C10.2725 4.03343 10.9064 3.96034 11.7112 3.94966C11.8568 3.94575 11.8568 3.94575 12.0053 3.94177C12.2424 3.93561 12.4794 3.93095 12.7165 3.92769C12.7407 3.85064 12.7407 3.85064 12.7655 3.77204C13.1671 2.52696 13.7782 1.61044 14.9137 0.939409C16.2276 0.31637 17.8057 0.242624 19.093 0.979921ZM15.1225 2.49397C14.6651 2.93932 14.3947 3.41693 14.2106 4.02657C14.0686 4.49174 13.8872 4.84529 13.5075 5.15816C13.2547 5.24241 13.0801 5.26036 12.8167 5.26768C12.7331 5.27057 12.6495 5.27346 12.5634 5.27643C12.3885 5.28177 12.2136 5.28681 12.0388 5.29154C11.2463 5.30444 11.2463 5.30444 10.5419 5.62679C10.0679 6.24616 10.1516 6.90284 10.1512 7.65206C10.1501 7.7581 10.149 7.86415 10.1479 7.97341C10.1195 8.8458 10.1195 8.8458 10.4667 9.61792C10.8552 9.90462 11.1105 10.0028 11.5878 10.0046C11.6802 10.0052 11.7726 10.0058 11.8678 10.0065C11.9675 10.0069 12.0672 10.0072 12.1699 10.0076C12.3801 10.0096 12.5904 10.0118 12.8006 10.0139C13.1327 10.017 13.4649 10.0196 13.797 10.0208C14.1171 10.0221 14.4371 10.0257 14.7572 10.0296C14.9067 10.0293 14.9067 10.0293 15.0593 10.0291C15.1517 10.0305 15.2441 10.032 15.3393 10.0335C15.4207 10.034 15.502 10.0345 15.5859 10.035C15.7927 10.08 15.7927 10.08 15.9508 10.2419C16.0934 10.4982 16.0932 10.6701 16.0563 10.9589C15.9205 11.1379 15.8171 11.2104 15.6169 11.3105C15.4726 11.3198 15.3279 11.3236 15.1833 11.3247C15.0928 11.3255 15.0024 11.3264 14.9093 11.3272C14.8111 11.3276 14.7128 11.328 14.6116 11.3284C14.5106 11.3289 14.4095 11.3294 14.3054 11.3299C14.0908 11.3307 13.8763 11.3313 13.6617 11.3316C13.3355 11.3325 13.0094 11.3352 12.6832 11.338C12.4746 11.3385 12.2659 11.339 12.0573 11.3393C11.9605 11.3404 11.8637 11.3415 11.764 11.3426C10.9857 11.3404 10.2276 11.2652 9.6458 10.7008C9.58337 10.642 9.52095 10.5832 9.45663 10.5226C9.28874 10.3437 9.28874 10.3437 9.1708 10.1594C9.04068 9.97744 9.04068 9.97744 8.8444 9.94868C8.77525 9.94893 8.70611 9.94918 8.63486 9.94944C8.55627 9.9489 8.47767 9.94836 8.39669 9.9478C8.31209 9.94907 8.22749 9.95033 8.14033 9.95163C8.05333 9.95171 7.96633 9.95179 7.8767 9.95188C7.69281 9.95241 7.50892 9.95379 7.32505 9.95597C7.04283 9.95918 6.76071 9.95957 6.47848 9.95953C6.3 9.96039 6.12153 9.96142 5.94306 9.96262C5.85829 9.96281 5.77351 9.96301 5.68616 9.96321C5.56868 9.96489 5.56868 9.96489 5.44883 9.96661C5.37975 9.96728 5.31068 9.96795 5.23951 9.96864C5.04912 9.97767 5.04912 9.97767 4.89421 10.1679C4.87669 10.4297 4.87032 10.6834 4.87151 10.9453C4.87119 11.0268 4.87087 11.1083 4.87053 11.1923C4.86965 11.467 4.87002 11.7418 4.87037 12.0165C4.86999 12.2128 4.86952 12.4091 4.86898 12.6054C4.86797 13.029 4.86749 13.4525 4.86741 13.876C4.86724 14.5451 4.86566 15.2141 4.86383 15.8831C4.86138 16.8206 4.85936 17.7581 4.85788 18.6956C4.85779 18.7551 4.8577 18.8146 4.8576 18.876C4.85656 19.5402 4.85566 20.2044 4.85492 20.8687C4.85465 21.1096 4.85438 21.3505 4.85411 21.5914C4.85404 21.6509 4.85397 21.7103 4.8539 21.7716C4.85276 22.7618 4.85058 23.752 4.84763 24.7422C4.84571 25.4079 4.84501 26.0736 4.8452 26.7394C4.84505 27.1528 4.84382 27.5662 4.84228 27.9796C4.84179 28.172 4.84175 28.3644 4.84219 28.5568C4.84272 28.8184 4.84166 29.0801 4.84018 29.3417C4.84073 29.4187 4.84128 29.4957 4.84184 29.575C4.83965 29.7864 4.83965 29.7864 4.80632 30.1191C4.48225 30.3351 4.31031 30.3222 3.92742 30.2949C3.8404 30.2369 3.75339 30.1789 3.66374 30.1191C3.63732 29.8481 3.62824 29.5947 3.63026 29.3235C3.62985 29.24 3.62944 29.1565 3.62902 29.0705C3.62796 28.7891 3.6288 28.5077 3.62963 28.2262C3.62927 28.0252 3.6288 27.8241 3.62823 27.623C3.62702 27.0755 3.62749 26.528 3.62833 25.9805C3.62899 25.4084 3.62837 24.8363 3.62796 24.2642C3.62745 23.2414 3.62827 22.2185 3.62961 21.1957C3.63079 20.2683 3.63058 19.3409 3.62937 18.4134C3.62796 17.337 3.62743 16.2606 3.62821 15.1842C3.62862 14.6142 3.62868 14.0442 3.62781 13.4742C3.62705 12.9381 3.62757 12.4021 3.6291 11.866C3.62945 11.6691 3.62934 11.4721 3.62876 11.2751C3.62805 11.0066 3.62895 10.7382 3.63026 10.4697C3.62967 10.3914 3.62909 10.3131 3.62848 10.2325C3.63253 9.80819 3.67055 9.5553 3.92742 9.20113C3.92742 9.14312 3.92742 9.08511 3.92742 9.02535C4.33331 8.81489 4.68471 8.65324 5.14752 8.64576C5.27152 8.64314 5.27152 8.64314 5.39803 8.64047C5.53017 8.63895 5.53017 8.63895 5.66497 8.63739C5.75604 8.63569 5.84711 8.63399 5.94093 8.63223C6.23106 8.62699 6.52118 8.62291 6.81133 8.61885C7.00834 8.6155 7.20535 8.61206 7.40236 8.60855C7.88466 8.60012 8.36696 8.59273 8.84929 8.58589C8.84929 8.03482 8.84929 7.48375 8.84929 6.91597C8.21289 6.90943 7.57652 6.90466 6.94009 6.90149C6.72383 6.90017 6.50756 6.89837 6.2913 6.89608C5.97952 6.89286 5.66777 6.89138 5.35598 6.89022C5.26009 6.88886 5.16421 6.8875 5.06541 6.8861C4.14306 6.8859 3.41117 7.11113 2.69695 7.70699C1.99356 8.44716 1.80739 9.29157 1.80674 10.2942C1.80645 10.4048 1.80617 10.5153 1.80588 10.6292C1.806 10.7507 1.80614 10.8723 1.80629 10.9938C1.80612 11.1238 1.80592 11.2538 1.80569 11.3838C1.80515 11.7403 1.80516 12.0968 1.80526 12.4533C1.80528 12.838 1.8048 13.2228 1.80438 13.6076C1.80365 14.3611 1.80341 15.1147 1.80336 15.8683C1.80332 16.4809 1.80314 17.0936 1.80286 17.7062C1.80208 19.4437 1.80168 21.1813 1.80174 22.9188C1.80175 23.0124 1.80175 23.1061 1.80175 23.2026C1.80176 23.2963 1.80176 23.3901 1.80177 23.4867C1.8018 25.006 1.80096 26.5254 1.79972 28.0447C1.79846 29.6053 1.79785 31.1659 1.79793 32.7265C1.79796 33.6025 1.79772 34.4784 1.79677 35.3544C1.79597 36.1002 1.79578 36.846 1.79637 37.5918C1.79666 37.9722 1.79667 38.3525 1.7959 38.7328C1.79521 39.0814 1.79534 39.43 1.7961 39.7787C1.79624 39.9043 1.79608 40.03 1.79559 40.1557C1.79126 41.3418 1.83081 42.4259 2.67497 43.3247C3.66674 44.2579 4.89774 44.2073 6.18257 44.2016C6.33857 44.2015 6.49456 44.2015 6.65055 44.2016C7.07178 44.2017 7.49301 44.2006 7.91424 44.1994C8.35529 44.1983 8.79633 44.1982 9.23738 44.198C10.0716 44.1975 10.9057 44.196 11.7399 44.1943C12.69 44.1923 13.6402 44.1913 14.5903 44.1904C16.5438 44.1886 18.4973 44.1855 20.4509 44.1816C20.1537 43.8834 20.1537 43.8834 19.8524 43.5894C19.8052 43.5437 19.758 43.498 19.7093 43.451C19.6623 43.406 19.6152 43.361 19.5668 43.3147C19.3962 43.1269 19.3962 43.1269 19.3122 42.9577C19.1855 42.7296 19.0738 42.5871 18.8688 42.4238C18.4154 42.3175 17.9647 42.3333 17.5022 42.3415C17.3619 42.3414 17.2215 42.341 17.0811 42.3403C16.7794 42.3394 16.4778 42.3408 16.176 42.3439C15.6988 42.3488 15.2217 42.3487 14.7445 42.3479C13.9896 42.3472 13.2349 42.3498 12.48 42.3539C11.1284 42.3611 9.77671 42.3644 8.42503 42.364C7.95077 42.364 7.47657 42.366 7.00233 42.3696C6.70721 42.3715 6.4121 42.372 6.11698 42.3721C5.98028 42.3725 5.84359 42.3735 5.70691 42.3751C5.52003 42.3773 5.33328 42.3773 5.14639 42.3768C5.04192 42.3774 4.93744 42.378 4.8298 42.3786C4.37814 42.3115 4.10836 42.0883 3.80923 41.7542C3.61121 41.3497 3.61572 41.0135 3.62104 40.5689C3.62071 40.4808 3.62038 40.3927 3.62003 40.302C3.61938 40.0117 3.62126 39.7216 3.62323 39.4314C3.62344 39.2296 3.62352 39.0278 3.62348 38.826C3.62375 38.4037 3.6252 37.9814 3.62757 37.5591C3.63056 37.0169 3.63123 36.4746 3.63109 35.9324C3.63114 35.516 3.6321 35.0997 3.63338 34.6833C3.63394 34.4833 3.63428 34.2833 3.63441 34.0832C3.63479 33.8044 3.63633 33.5257 3.63821 33.2469C3.63813 33.1637 3.63805 33.0805 3.63797 32.9948C3.63872 32.9191 3.63947 32.8435 3.64024 32.7655C3.64053 32.6996 3.64083 32.6337 3.64113 32.5658C3.66374 32.4043 3.66374 32.4043 3.83952 32.2285C4.19142 32.1143 4.39012 32.1522 4.71843 32.3164C4.90505 32.503 4.81988 32.9262 4.82018 33.1846C4.82063 33.2665 4.82108 33.3484 4.82154 33.4327C4.82248 33.6112 4.82324 33.7896 4.82383 33.9681C4.82487 34.2502 4.82657 34.5324 4.8285 34.8145C4.83393 35.6169 4.83867 36.4194 4.8416 37.2218C4.84344 37.712 4.84653 38.2022 4.85045 38.6924C4.8517 38.8796 4.85247 39.0668 4.85274 39.254C4.85317 39.5156 4.8552 39.7771 4.85761 40.0387C4.85734 40.1165 4.85708 40.1943 4.8568 40.2745C4.85778 40.3457 4.85876 40.4169 4.85976 40.4903C4.86005 40.5522 4.86034 40.614 4.86064 40.6778C4.90664 40.9025 4.96892 40.9754 5.15788 41.1054C5.40171 41.1446 5.40171 41.1446 5.68342 41.1371C5.84814 41.1377 5.84814 41.1377 6.01618 41.1382C6.13809 41.1373 6.25999 41.1363 6.38189 41.1354C6.51009 41.1353 6.63828 41.1353 6.76647 41.1355C7.11475 41.1356 7.463 41.134 7.81127 41.1322C8.17514 41.1305 8.53901 41.1304 8.90288 41.13C9.59203 41.1292 10.2812 41.1271 10.9703 41.1244C11.7548 41.1215 12.5394 41.12 13.3239 41.1187C14.9378 41.1159 16.5518 41.1113 18.1657 41.1054C18.154 41.0471 18.1424 40.9887 18.1303 40.9286C18.0835 40.6946 18.0367 40.4605 17.9899 40.2265C17.9738 40.1488 17.9576 40.071 17.9409 39.9909C17.8994 39.7736 17.8891 39.5714 17.8865 39.3502C17.8848 39.2235 17.8848 39.2235 17.8831 39.0942C17.8824 39.0039 17.8818 38.9136 17.8811 38.8206C17.8804 38.7269 17.8797 38.6332 17.8789 38.5366C17.8777 38.3387 17.8768 38.1408 17.8761 37.9429C17.8751 37.7406 17.8733 37.5383 17.8707 37.3361C17.8669 37.0435 17.8655 36.7511 17.8646 36.4585C17.8623 36.3234 17.8623 36.3234 17.8599 36.1855C17.8615 35.6705 17.8957 35.353 18.2536 34.9531C18.3328 34.8992 18.412 34.8452 18.4936 34.7897C18.7291 34.6075 18.7291 34.6075 18.736 34.2596C18.7331 34.1318 18.7278 34.004 18.7205 33.8764C18.7175 33.7782 18.7175 33.7782 18.7145 33.678C18.7093 33.517 18.7015 33.3561 18.693 33.1953C18.6395 33.1948 18.5859 33.1942 18.5307 33.1937C17.9747 33.1881 17.4187 33.1807 16.8627 33.1722C16.655 33.1693 16.4473 33.1668 16.2397 33.1648C15.9416 33.1619 15.6437 33.1573 15.3456 33.1524C15.2523 33.1518 15.1591 33.1512 15.0629 33.1507C14.9336 33.148 14.9336 33.148 14.8017 33.1454C14.7256 33.1444 14.6495 33.1434 14.571 33.1424C14.4796 33.1251 14.4796 33.1251 14.3864 33.1074C14.1704 32.7833 14.1833 32.6114 14.2106 32.2285C14.2686 32.1415 14.3266 32.0544 14.3864 31.9648C14.581 31.9298 14.581 31.9298 14.8259 31.9268C14.9174 31.9251 15.0089 31.9233 15.1031 31.9215C15.2517 31.9207 15.2517 31.9207 15.4033 31.9198C15.5551 31.9175 15.5551 31.9175 15.71 31.915C16.0342 31.9103 16.3583 31.9073 16.6825 31.9044C16.9019 31.9015 17.1213 31.8984 17.3407 31.8953C17.8794 31.8878 18.418 31.8818 18.9567 31.8769C19.043 31.6499 19.129 31.4229 19.2149 31.1958C19.2393 31.1316 19.2637 31.0675 19.2889 31.0014C19.3124 30.9391 19.3359 30.8768 19.3601 30.8126C19.3926 30.727 19.3926 30.727 19.4257 30.6397C19.485 30.4678 19.5305 30.296 19.5719 30.1191C19.5074 30.1186 19.4428 30.1181 19.3763 30.1175C18.7684 30.1124 18.1606 30.1061 17.5527 30.0984C17.2402 30.0944 16.9277 30.091 16.6152 30.0886C16.2561 30.0859 15.897 30.0811 15.5379 30.0762C15.3691 30.0753 15.3691 30.0753 15.1969 30.0745C15.0412 30.0719 15.0412 30.0719 14.8824 30.0692C14.7906 30.0682 14.6989 30.0673 14.6044 30.0663C14.4965 30.0489 14.4965 30.0489 14.3864 30.0312C14.1704 29.7071 14.1833 29.5352 14.2106 29.1523C14.2686 29.0653 14.3266 28.9783 14.3864 28.8886C14.637 28.8583 14.637 28.8583 14.9614 28.8618C15.0204 28.862 15.0794 28.8623 15.1403 28.8625C15.2687 28.8631 15.3971 28.8643 15.5256 28.866C15.7292 28.8684 15.9328 28.8688 16.1364 28.8686C16.7154 28.8683 17.2944 28.8703 17.8734 28.8768C18.2276 28.8807 18.5816 28.8811 18.9357 28.8793C19.0704 28.8794 19.205 28.8807 19.3397 28.8833C20.0859 28.9177 20.0859 28.9177 20.7566 28.6467C20.913 28.4707 21.0358 28.3007 21.154 28.0976C21.2047 28.0251 21.2555 27.9526 21.3078 27.8779C21.4034 27.6867 21.4967 27.4968 21.5824 27.3011C21.6076 27.2439 21.6327 27.1867 21.6587 27.1277C21.6983 26.9475 21.6983 26.9475 21.5929 26.7712C21.3362 26.5255 21.0819 26.5552 20.7451 26.5597C20.6767 26.5592 20.6084 26.5587 20.538 26.5582C20.3897 26.5574 20.2413 26.5574 20.093 26.5581C19.8584 26.5592 19.624 26.5582 19.3895 26.5567C18.9764 26.5543 18.5634 26.5538 18.1504 26.554C17.4889 26.5542 16.8274 26.5529 16.166 26.5491C15.9345 26.5482 15.7031 26.549 15.4716 26.5498C15.3303 26.5493 15.1889 26.5487 15.0476 26.548C14.9829 26.5487 14.9182 26.5494 14.8516 26.5501C14.6727 26.5483 14.6727 26.5483 14.3864 26.5156C14.1704 26.1915 14.1833 26.0196 14.2106 25.6367C14.2686 25.5497 14.3266 25.4627 14.3864 25.373C14.6444 25.338 14.6444 25.338 14.9792 25.335C15.0401 25.3341 15.101 25.3332 15.1637 25.3323C15.3654 25.3296 15.567 25.3288 15.7686 25.328C15.9083 25.3265 16.0479 25.325 16.1876 25.3232C16.5555 25.3191 16.9233 25.3164 17.2912 25.3142C17.6665 25.3115 18.0417 25.3074 18.417 25.3035C19.1535 25.2959 19.8901 25.2901 20.6266 25.2851C20.5686 24.705 20.5106 24.125 20.4509 23.5273C20.2681 23.526 20.0853 23.5247 19.8969 23.5234C19.2939 23.519 18.6909 23.5131 18.0878 23.5066C17.7221 23.5026 17.3564 23.4992 16.9907 23.4969C16.6379 23.4946 16.2852 23.491 15.9324 23.4866C15.7977 23.4851 15.6629 23.4841 15.5281 23.4836C15.3397 23.4827 15.1514 23.4803 14.9631 23.4774C14.8557 23.4764 14.7484 23.4755 14.6378 23.4745C14.5133 23.4571 14.5133 23.4571 14.3864 23.4394C14.1704 23.1153 14.1833 22.9434 14.2106 22.5605C14.2686 22.4735 14.3266 22.3865 14.3864 22.2968C14.6397 22.2701 14.6397 22.2701 14.968 22.2784C15.0278 22.2794 15.0876 22.2805 15.1491 22.2816C15.2791 22.284 15.4092 22.2869 15.5392 22.2903C15.8161 22.2968 16.093 22.2987 16.37 22.3008C16.8859 22.3048 17.4015 22.3108 17.9171 22.3248C18.2759 22.3344 18.6342 22.338 18.9931 22.3376C19.1294 22.3386 19.2658 22.3418 19.402 22.3473C19.8325 22.3641 20.2159 22.3581 20.6266 22.2089C20.8941 21.9485 21.0426 21.6269 21.1886 21.2881C21.4234 20.773 21.8133 20.4071 22.2087 20.0117C22.1111 20.0112 22.0135 20.0106 21.9129 20.0101C20.9946 20.0051 20.0763 19.9987 19.1581 19.991C18.686 19.987 18.2138 19.9836 17.7417 19.9812C17.2864 19.9789 16.831 19.9754 16.3757 19.971C16.2017 19.9695 16.0277 19.9685 15.8536 19.9679C15.6105 19.9671 15.3675 19.9646 15.1244 19.9618C15.0519 19.9619 14.9794 19.962 14.9047 19.9622C14.7045 19.9588 14.7045 19.9588 14.3864 19.9238C14.1704 19.5997 14.1833 19.4278 14.2106 19.0449C14.2686 18.9579 14.3266 18.8709 14.3864 18.7812C14.6437 18.7534 14.8828 18.7428 15.1406 18.7432C15.2186 18.7423 15.2966 18.7414 15.377 18.7405C15.6357 18.7378 15.8944 18.737 16.1531 18.7362C16.3322 18.7348 16.5113 18.7332 16.6903 18.7314C17.1622 18.7273 17.6341 18.7247 18.1061 18.7224C18.5874 18.7197 19.0687 18.7157 19.55 18.7117C20.4948 18.7041 21.4396 18.6982 22.3844 18.6933C22.4115 18.5582 22.4115 18.5582 22.439 18.4204C22.538 17.9254 22.637 17.4305 22.736 16.9355C22.6318 16.935 22.5276 16.9345 22.4202 16.9339C21.4398 16.9289 20.4595 16.9225 19.4792 16.9148C18.9751 16.9108 18.4711 16.9074 17.967 16.9051C17.4809 16.9028 16.9948 16.8992 16.5087 16.8948C16.3229 16.8933 16.1371 16.8923 15.9513 16.8918C15.6918 16.8909 15.4323 16.8885 15.1728 16.8856C15.0567 16.8858 15.0567 16.8858 14.9381 16.886C14.7245 16.8827 14.7245 16.8827 14.3864 16.8476C14.1704 16.5235 14.1833 16.3516 14.2106 15.9687C14.2686 15.8817 14.3266 15.7947 14.3864 15.705C14.5495 15.6734 14.5495 15.6734 14.7514 15.6753C14.8661 15.6754 14.8661 15.6754 14.9832 15.6754C15.0673 15.6768 15.1515 15.6782 15.2382 15.6796C15.3266 15.68 15.4151 15.6803 15.5063 15.6807C15.699 15.6816 15.8918 15.6831 16.0845 15.6851C16.3901 15.6879 16.6957 15.6887 17.0013 15.6888C17.8705 15.6893 18.7396 15.6918 19.6088 15.6999C20.1401 15.7047 20.6714 15.7056 21.2028 15.7041C21.4048 15.7043 21.6069 15.7059 21.809 15.709C23.0881 15.7677 23.0881 15.7677 24.196 15.2323C24.2604 15.1627 24.3248 15.0931 24.3912 15.0213C24.8561 14.545 25.6841 14.3068 26.3395 14.2109C26.4154 14.2103 26.4913 14.2098 26.5696 14.2092C27.0761 14.2021 27.0761 14.2021 27.5099 13.9634C27.7017 13.7655 27.7017 13.7655 27.8639 13.562C28.0973 13.332 28.0973 13.332 28.3348 13.2137C28.6193 13.0697 28.8365 12.9412 29.0641 12.7168C29.1887 12.2785 29.1641 11.8665 29.1355 11.4149C29.1322 11.2964 29.1293 11.1779 29.1268 11.0594C29.1471 10.4726 29.1471 10.4726 28.8884 9.99214C28.7167 9.96054 28.7167 9.96054 28.5179 9.95824C28.4413 9.95542 28.3647 9.95259 28.2857 9.94968C27.9334 9.94184 27.5811 9.93464 27.2288 9.9306C27.0435 9.9277 26.8582 9.92292 26.6731 9.91618C25.6108 9.84052 25.6108 9.84052 24.644 10.1846C24.4326 10.4129 24.4326 10.4129 24.2809 10.6591C24.0361 11.0334 23.6614 11.1711 23.2383 11.2692C22.9965 11.311 22.773 11.3223 22.5278 11.3233C22.4357 11.3238 22.3436 11.3244 22.2487 11.325C22.1009 11.3251 22.1009 11.3251 21.9501 11.3253C21.8482 11.3256 21.7463 11.3259 21.6412 11.3262C21.426 11.3266 21.2108 11.3268 20.9956 11.3268C20.666 11.327 20.3364 11.3286 20.0068 11.3302C19.7976 11.3305 19.5885 11.3307 19.3793 11.3308C19.2806 11.3314 19.1819 11.332 19.0803 11.3327C18.9884 11.3324 18.8966 11.3321 18.802 11.3319C18.7214 11.332 18.6407 11.3321 18.5576 11.3322C18.3265 11.309 18.1849 11.2594 17.9899 11.1347C17.8665 10.8878 17.8801 10.7051 17.902 10.4316C18.0072 10.2414 18.0072 10.2414 18.1657 10.08C18.3707 10.0362 18.3707 10.0362 18.6149 10.0362C18.7064 10.0354 18.7979 10.0345 18.8923 10.0336C18.9911 10.0343 19.09 10.035 19.1919 10.0357C19.2937 10.0349 19.3954 10.0341 19.5003 10.0332C19.8263 10.0307 20.1523 10.0304 20.4783 10.0306C20.8034 10.0303 21.1285 10.0294 21.4535 10.027C21.6559 10.0255 21.8583 10.0253 22.0607 10.0264C22.555 10.0232 22.9285 10.0159 23.3512 9.72847C23.9167 9.14774 23.8068 8.4368 23.8072 7.67403C23.8083 7.56798 23.8093 7.46194 23.8104 7.35268C23.8361 6.48353 23.8361 6.48353 23.4978 5.70816C23.0691 5.3801 22.7252 5.32613 22.1977 5.3154C22.0719 5.31166 22.0719 5.31166 21.9436 5.30785C21.7688 5.30327 21.5939 5.29938 21.419 5.29617C20.9629 5.28138 20.6518 5.26644 20.2751 4.98238C20.2171 4.98238 20.1591 4.98238 20.0993 4.98238C19.9998 4.74219 19.9102 4.50259 19.8288 4.25556C19.4906 3.23324 19.1226 2.6063 18.1657 2.08199C17.0742 1.61418 16.0822 1.87701 15.1225 2.49397ZM25.1091 6.91597C25.1091 7.46705 25.1091 8.01812 25.1091 8.58589C25.2314 8.58718 25.3538 8.58846 25.4799 8.58978C25.9349 8.59488 26.39 8.60167 26.845 8.60896C27.0417 8.61188 27.2385 8.61434 27.4352 8.61634C27.7185 8.6193 28.0016 8.6239 28.2848 8.62881C28.3724 8.62937 28.4601 8.62993 28.5504 8.63051C29.026 8.64052 29.3511 8.68352 29.7673 8.93746C29.8543 8.96646 29.9413 8.99546 30.0309 9.02535C30.1298 9.23958 30.1298 9.23958 30.2067 9.4648C30.2502 9.55181 30.2502 9.55181 30.2946 9.64058C30.3082 9.8319 30.3166 10.0236 30.3224 10.2153C30.3261 10.3297 30.3298 10.4442 30.3336 10.5621C30.3371 10.6834 30.3406 10.8047 30.344 10.926C30.3478 11.048 30.3517 11.17 30.3555 11.292C30.3649 11.5911 30.3737 11.8903 30.3825 12.1894C30.9626 12.1314 31.5427 12.0734 32.1403 12.0136C32.1451 11.6529 32.1486 11.2922 32.1513 10.9315C32.1535 10.7801 32.1535 10.7801 32.1558 10.6257C32.162 9.51816 32.0667 8.56833 31.2906 7.72312C30.6868 7.1718 30.0264 6.90401 29.2099 6.90599C29.0727 6.906 29.0727 6.906 28.9328 6.90601C28.8351 6.90647 28.7374 6.90692 28.6367 6.90739C28.5359 6.90751 28.4351 6.90764 28.3312 6.90777C28.0097 6.90826 27.6882 6.90936 27.3667 6.91048C27.1486 6.91092 26.9304 6.91132 26.7122 6.91168C26.1778 6.91265 25.6434 6.91417 25.1091 6.91597ZM28.5073 14.868C28.43 14.9412 28.3527 15.0144 28.2731 15.0898C28.2221 15.1407 28.1712 15.1915 28.1186 15.244C27.7969 15.4228 27.4485 15.4295 27.0866 15.4688C26.1032 15.5951 25.189 15.8789 24.5237 16.6694C23.9082 17.5866 23.744 18.3358 23.8036 19.4305C23.8248 19.9711 23.755 20.3554 23.4391 20.8027C23.2311 21.0135 23.2311 21.0135 23.0107 21.1872C22.3528 21.749 21.9063 22.4534 21.8276 23.3282C21.825 23.4458 21.8239 23.5635 21.8241 23.6811C21.8244 23.7738 21.8244 23.7738 21.8246 23.8683C21.8425 24.6341 22.1202 25.1937 22.5602 25.8125C22.6235 25.9217 22.6858 26.0316 22.747 26.142C22.8936 26.4247 22.8936 26.4247 23.0876 26.6035C23.1718 26.5631 23.2559 26.5228 23.3427 26.4812C25.5349 25.4592 27.8801 25.2617 30.1786 26.0655C30.4236 26.1482 30.6555 26.2089 30.9098 26.2519C30.5527 25.6161 30.1503 25.0503 29.6794 24.4941C29.6208 24.4226 29.5622 24.3511 29.5019 24.2775C28.7224 23.362 27.7645 22.6821 26.7306 22.0823C26.5153 21.9453 26.5153 21.9453 26.4274 21.7695C26.3932 21.4547 26.3891 21.2981 26.5702 21.0334C26.8434 20.8465 26.9784 20.8588 27.3063 20.8906C28.1286 21.252 28.8339 21.7936 29.5036 22.3847C29.5816 22.4521 29.6597 22.5195 29.7401 22.589C30.1686 22.9651 30.5461 23.3526 30.9098 23.791C30.9388 23.791 30.9678 23.791 30.9977 23.791C31.1034 22.5672 30.992 21.8402 30.2067 20.8906C30.1287 20.7911 30.0508 20.6915 29.9729 20.5919C29.3998 19.8751 28.7551 19.2452 28.0307 18.6799C27.7848 18.4773 27.7527 18.4051 27.7183 18.0891C27.7458 17.8144 27.7458 17.8144 27.8886 17.6057C28.0973 17.4628 28.0973 17.4628 28.3335 17.4024C28.7895 17.4971 29.0707 17.7764 29.4157 18.0781C29.4898 18.1415 29.5639 18.205 29.6402 18.2703C30.0597 18.6376 30.4418 19.0168 30.7976 19.4462C30.8531 19.5086 30.8531 19.5086 30.9098 19.5722C30.9388 19.5722 30.9678 19.5722 30.9977 19.5722C30.9981 19.4778 30.9984 19.3833 30.9988 19.286C31.0007 18.9356 31.0055 18.5852 31.0111 18.2349C31.0132 18.0832 31.0144 17.9316 31.0149 17.7799C31.0157 17.5619 31.0193 17.344 31.0235 17.126C31.0231 17.0582 31.0228 16.9903 31.0224 16.9204C31.0277 16.7285 31.0277 16.7285 31.0856 16.4082C31.3477 16.1822 31.4588 16.1406 31.8052 16.161C32.0524 16.2324 32.0524 16.2324 32.2282 16.4082C32.2498 16.6472 32.261 16.878 32.2646 17.1175C32.2663 17.1874 32.268 17.2574 32.2697 17.3295C32.275 17.5534 32.2791 17.7773 32.2831 18.0012C32.2865 18.1528 32.2899 18.3044 32.2934 18.4561C32.3019 18.8281 32.3093 19.2002 32.3161 19.5722C32.5306 19.3583 32.7444 19.1444 32.9536 18.9254C33.3424 18.5229 33.7425 18.147 34.1838 17.8034C34.2676 17.7379 34.3514 17.6725 34.4378 17.605C34.7269 17.4415 34.8895 17.4226 35.2165 17.4628C35.4851 17.6466 35.5561 17.7523 35.6175 18.0726C35.5265 18.5681 35.034 18.8678 34.6702 19.1948C33.976 19.8241 33.3911 20.4833 32.8434 21.2421C32.7852 21.3127 32.727 21.3833 32.667 21.456C32.152 22.147 32.2706 22.9712 32.3161 23.791C32.5845 23.5848 32.8138 23.3851 33.0247 23.1208C33.7272 22.3048 35.1405 20.9989 36.2712 20.8576C36.5348 20.8906 36.5348 20.8906 36.7436 21.0334C36.9292 21.3047 36.9402 21.4468 36.8864 21.7695C36.6259 22.0786 36.3183 22.265 35.9745 22.4726C34.6096 23.328 33.5386 24.4299 32.6512 25.7685C32.6171 25.8191 32.5831 25.8697 32.5481 25.9218C32.3591 26.2189 32.2759 26.4265 32.3161 26.7793C32.5391 26.5578 32.7599 26.3352 32.976 26.107C33.501 25.56 34.0183 25.1244 34.6891 24.7578C34.8011 24.6956 34.8011 24.6956 34.9154 24.6321C36.1801 23.9932 37.6058 23.909 38.9628 24.2854C39.6003 24.5002 40.3612 24.8048 40.8415 25.2851C41.0229 25.281 41.0229 25.281 41.193 25.1972C41.5658 24.4385 41.5886 23.513 41.3795 22.6995C41.0785 21.9158 40.5976 21.3571 39.9255 20.8655C39.5296 20.4353 39.4983 19.9949 39.5179 19.4382C39.5214 19.3591 39.525 19.2801 39.5286 19.1987C39.5527 18.1295 39.3519 17.3326 38.6058 16.529C37.8857 15.8617 37.2352 15.5966 36.2657 15.5018C35.5644 15.4146 35.1509 15.2981 34.6891 14.7382C33.8484 13.9029 32.8523 13.4343 31.6679 13.3924C30.3764 13.4212 29.4076 13.997 28.5073 14.868ZM33.8981 27.1308C33.6858 27.3597 33.4799 27.5918 33.2829 27.8339C33.4082 28.118 33.5626 28.3088 33.7773 28.5316C34.218 29.0157 34.5362 29.5564 34.8649 30.1191C34.9527 30.2657 35.0405 30.4122 35.1286 30.5585C35.2105 30.5278 35.2924 30.4971 35.3768 30.4655C36.6987 29.9866 37.98 29.8638 39.303 30.4435C40.434 31.0346 41.1212 31.8785 41.5477 33.0748C41.6839 33.5506 41.7489 34.0225 41.8083 34.5136C42.2723 34.5136 42.7364 34.5136 43.2145 34.5136C43.2759 31.7866 42.7965 29.3174 40.9294 27.2187C40.87 27.1511 40.8106 27.0834 40.7495 27.0137C39.8244 26.0228 38.7042 25.4416 37.3547 25.3679C35.9388 25.3928 34.8489 26.1609 33.8981 27.1308ZM22.0604 29.0974C20.8436 30.3505 20.0747 32.0405 20.0938 33.794C20.0942 33.8633 20.0946 33.9326 20.095 34.004C20.096 34.1739 20.0976 34.3437 20.0993 34.5136C20.5053 34.5136 20.9114 34.5136 21.3298 34.5136C21.333 34.4244 21.3363 34.3351 21.3397 34.2431C21.4202 32.4218 21.9715 30.8898 23.3293 29.6192C24.5879 28.5826 26.0995 28.1079 27.7207 28.2051C29.3055 28.3735 30.7051 29.0271 31.7887 30.207C32.6344 31.2702 33.0828 32.4845 33.1565 33.838C33.1603 33.9031 33.1641 33.9681 33.168 34.0352C33.1773 34.1947 33.1862 34.3541 33.195 34.5136C33.601 34.5136 34.0071 34.5136 34.4255 34.5136C34.4699 33.5049 34.3974 32.6672 34.0739 31.7011C34.0358 31.5822 34.0358 31.5822 33.997 31.4608C33.3931 29.7678 31.94 28.3958 30.3825 27.5703C29.9789 27.3984 29.572 27.257 29.152 27.1308C29.0837 27.1102 29.0154 27.0896 28.945 27.0683C26.4129 26.4128 23.8916 27.3463 22.0604 29.0974ZM23.8182 31.0529C23.0844 31.9048 22.7261 32.8104 22.7326 33.9211C22.7331 34.032 22.7336 34.1429 22.7341 34.2572C22.7347 34.3418 22.7354 34.4264 22.736 34.5136C22.8937 34.5155 22.8937 34.5155 23.0545 34.5175C23.4442 34.5226 23.8339 34.5294 24.2236 34.5367C24.3923 34.5396 24.561 34.5421 24.7297 34.5441C24.9721 34.547 25.2145 34.5516 25.4568 34.5565C25.5702 34.5574 25.5702 34.5574 25.6857 34.5582C25.7561 34.56 25.8265 34.5617 25.899 34.5635C25.9608 34.5645 26.0227 34.5655 26.0865 34.5665C26.3039 34.6126 26.3827 34.6889 26.5153 34.8652C26.5716 35.3903 26.5716 35.3903 26.4224 35.6294C26.1625 35.804 25.8991 35.7805 25.5966 35.7779C25.4969 35.7786 25.4969 35.7786 25.3951 35.7793C25.2508 35.7802 25.1065 35.7805 24.9622 35.7802C24.7339 35.7798 24.5057 35.781 24.2774 35.7827C23.7106 35.7865 23.1437 35.7874 22.5768 35.7885C22.0978 35.7895 21.6188 35.7916 21.1397 35.7951C20.9146 35.7963 20.6896 35.7959 20.4645 35.7955C20.3267 35.7963 20.189 35.7972 20.0512 35.7982C19.9571 35.7974 19.9571 35.7974 19.8611 35.7965C19.6078 35.7997 19.4367 35.8038 19.2254 35.9508C19.0819 36.1746 19.0998 36.3662 19.1006 36.6295C19.1005 36.7365 19.1004 36.8435 19.1003 36.9538C19.1019 37.0676 19.1034 37.1814 19.105 37.2987C19.1061 37.4144 19.1071 37.5301 19.1082 37.6494C19.1356 39.5379 19.4222 41.1315 20.7482 42.5618C22.2575 43.9935 23.9745 44.1951 25.9595 44.1944C26.0969 44.1946 26.2343 44.1949 26.3717 44.1953C26.7428 44.196 27.1138 44.1962 27.4848 44.1963C27.7173 44.1964 27.9498 44.1965 28.1822 44.1968C28.9953 44.1976 29.8083 44.198 30.6213 44.1979C31.376 44.1978 32.1306 44.1988 32.8853 44.2001C33.5358 44.2013 34.1863 44.2018 34.8369 44.2017C35.2243 44.2017 35.6116 44.2019 35.999 44.2029C36.3638 44.2037 36.7286 44.2037 37.0934 44.2031C37.2263 44.203 37.3591 44.2032 37.4919 44.2037C39.4215 44.211 41.1007 43.9202 42.5615 42.5659C43.9986 41.0509 44.1952 39.3233 44.2033 37.3261C44.2051 37.2111 44.2069 37.0961 44.2088 36.9777C44.2092 36.8679 44.2097 36.7581 44.2102 36.645C44.2114 36.4961 44.2114 36.4961 44.2127 36.3442C44.2006 36.1018 44.2006 36.1018 44.0857 35.9503C43.8305 35.7706 43.6167 35.7992 43.3071 35.7993C43.2446 35.799 43.1822 35.7986 43.1178 35.7983C42.9078 35.7975 42.698 35.7985 42.4881 35.7996C42.3378 35.7993 42.1875 35.799 42.0372 35.7986C41.7134 35.7978 41.3895 35.7979 41.0656 35.7986C40.5538 35.7996 40.042 35.7985 39.5302 35.7971C38.259 35.7939 36.9879 35.7934 35.7167 35.7936C34.7288 35.7938 33.7409 35.7931 32.7531 35.7901C32.244 35.7886 31.7349 35.7888 31.2259 35.7902C30.9095 35.7907 30.5932 35.7897 30.2769 35.7884C30.1299 35.7881 29.9829 35.7883 29.8359 35.7893C29.6356 35.7904 29.4355 35.7895 29.2352 35.7879C29.123 35.788 29.0108 35.788 28.8952 35.788C28.6247 35.7441 28.6247 35.7441 28.4537 35.5855C28.3142 35.295 28.3751 35.0837 28.4489 34.7773C28.7075 34.5187 28.987 34.5703 29.334 34.5651C29.404 34.5634 29.4739 34.5617 29.546 34.56C29.7699 34.5547 29.9938 34.5506 30.2177 34.5466C30.3693 34.5432 30.521 34.5398 30.6726 34.5363C31.0446 34.5278 31.4167 34.5205 31.7887 34.5136C31.7926 34.32 31.7954 34.1264 31.7977 33.9327C31.7993 33.8249 31.801 33.7171 31.8027 33.606C31.7542 32.4831 31.0916 31.41 30.2946 30.6464C28.349 28.9698 25.5592 29.2364 23.8182 31.0529ZM36.6172 31.4649C36.4852 31.497 36.4852 31.497 36.3505 31.5298C36.0901 31.615 35.8844 31.7273 35.6559 31.8769C35.6613 31.9273 35.6666 31.9777 35.6721 32.0297C35.7538 32.8586 35.7877 33.6782 35.8317 34.5136C37.3399 34.5136 38.8481 34.5136 40.402 34.5136C40.2974 33.4674 40.0301 32.6329 39.2155 31.9483C38.4426 31.4002 37.5256 31.2364 36.6172 31.4649Z" fill="#286996"/>
<path d="M12.9512 7.31133C13.0466 7.31085 13.1421 7.31038 13.2405 7.30989C13.5565 7.30879 13.8725 7.31024 14.1885 7.31182C14.4078 7.31181 14.6272 7.31167 14.8466 7.31143C15.3064 7.31131 15.7663 7.31238 16.2261 7.31442C16.7575 7.31675 17.2889 7.31691 17.8203 7.31588C18.3318 7.31493 18.8433 7.31548 19.3549 7.31672C19.5724 7.31711 19.79 7.31714 20.0075 7.3168C20.3113 7.31654 20.6151 7.31799 20.919 7.31991C21.0543 7.31932 21.0543 7.31932 21.1924 7.31871C21.2752 7.31958 21.358 7.32045 21.4433 7.32135C21.5151 7.32156 21.5869 7.32177 21.6609 7.32199C21.9071 7.36397 22.0275 7.4493 22.2085 7.61909C22.3117 7.93554 22.3252 8.08309 22.1865 8.38814C22.0327 8.58589 22.0327 8.58589 21.7691 8.76167C21.5882 8.78404 21.5882 8.78404 21.3766 8.78458C21.2963 8.78521 21.2159 8.78583 21.1332 8.78647C21.0452 8.78625 20.9573 8.78604 20.8667 8.78581C20.7275 8.78648 20.7275 8.78648 20.5855 8.78717C20.2781 8.7884 19.9706 8.78831 19.6631 8.78811C19.4498 8.78845 19.2364 8.78883 19.023 8.78925C18.5754 8.7899 18.1278 8.78988 17.6803 8.78942C17.1064 8.78891 16.5325 8.79039 15.9587 8.79243C15.5179 8.79373 15.0771 8.79381 14.6363 8.79353C14.4247 8.79358 14.2132 8.79404 14.0016 8.79492C13.7057 8.796 13.4099 8.79541 13.1141 8.79439C12.9827 8.7954 12.9827 8.7954 12.8487 8.79643C12.3663 8.79275 12.0207 8.76915 11.6616 8.41011C11.6105 7.78601 11.6105 7.78601 11.7811 7.52239C12.1471 7.25909 12.5113 7.30718 12.9512 7.31133Z" fill="#286996"/>
<path d="M11.5744 29.0645C11.7886 29.1963 11.7886 29.1963 11.9259 29.416C11.9747 29.7617 12.0062 29.9882 11.8211 30.2903C11.6671 30.471 11.5053 30.6372 11.3354 30.803C11.2747 30.8645 11.2139 30.9259 11.1513 30.9892C11.0227 31.1183 10.8932 31.2465 10.7629 31.3738C10.5642 31.5688 10.3696 31.7672 10.175 31.9662C10.0493 32.0914 9.92346 32.2164 9.79734 32.3411C9.73945 32.4004 9.68156 32.4598 9.62191 32.5209C9.34137 32.7904 9.14052 32.968 8.74145 32.985C8.41067 32.9317 8.28655 32.8977 8.05326 32.668C7.96744 32.5835 7.96744 32.5835 7.87988 32.4973C7.7944 32.4078 7.7944 32.4078 7.70719 32.3164C7.64748 32.2594 7.58778 32.2024 7.52626 32.1437C7.24211 31.855 7.05397 31.6482 7.04492 31.2315C7.09196 30.9102 7.09196 30.9102 7.22929 30.6904C7.53626 30.5015 7.70337 30.4984 8.05875 30.5586C8.28733 30.7125 8.4815 30.8894 8.67399 31.0859C8.99482 30.9512 9.19601 30.7589 9.43822 30.5116C9.5543 30.394 9.5543 30.394 9.67271 30.2742C9.75281 30.1922 9.83292 30.1102 9.91544 30.0258C10.0748 29.8634 10.2343 29.7012 10.394 29.5393C10.4998 29.4312 10.4998 29.4312 10.6076 29.3209C10.9175 29.0237 11.151 29.028 11.5744 29.0645Z" fill="#286996"/>
<path d="M11.5744 22.4727C11.7886 22.6045 11.7886 22.6045 11.9259 22.8242C11.9747 23.1699 12.0062 23.3964 11.8211 23.6985C11.6671 23.8792 11.5053 24.0454 11.3354 24.2112C11.2747 24.2727 11.2139 24.3341 11.1513 24.3974C11.0227 24.5265 10.8932 24.6547 10.7629 24.782C10.5642 24.977 10.3696 25.1754 10.175 25.3744C10.0493 25.4996 9.92346 25.6246 9.79734 25.7493C9.73945 25.8086 9.68156 25.868 9.62191 25.9291C9.34137 26.1986 9.14052 26.3762 8.74145 26.3932C8.41067 26.3399 8.28655 26.3059 8.05326 26.0762C7.96744 25.9917 7.96744 25.9917 7.87988 25.9055C7.7944 25.816 7.7944 25.816 7.70719 25.7246C7.64748 25.6676 7.58778 25.6106 7.52626 25.5519C7.24211 25.2632 7.05397 25.0564 7.04492 24.6397C7.09196 24.3184 7.09196 24.3184 7.22929 24.0986C7.53626 23.9097 7.70337 23.9066 8.05875 23.9668C8.28733 24.1207 8.4815 24.2976 8.67399 24.4941C8.99482 24.3594 9.19601 24.1671 9.43822 23.9198C9.5543 23.8022 9.5543 23.8022 9.67271 23.6824C9.75281 23.6004 9.83292 23.5184 9.91544 23.434C10.0748 23.2716 10.2343 23.1094 10.394 22.9475C10.4998 22.8394 10.4998 22.8394 10.6076 22.7291C10.9175 22.4319 11.151 22.4362 11.5744 22.4727Z" fill="#286996"/>
<path d="M11.5744 15.8809C11.7886 16.0127 11.7886 16.0127 11.9259 16.2324C11.9747 16.5781 12.0062 16.8046 11.8211 17.1067C11.6671 17.2874 11.5053 17.4536 11.3354 17.6194C11.2747 17.6809 11.2139 17.7423 11.1513 17.8056C11.0227 17.9347 10.8932 18.0629 10.7629 18.1902C10.5642 18.3852 10.3696 18.5836 10.175 18.7826C10.0493 18.9078 9.92346 19.0328 9.79734 19.1575C9.73945 19.2168 9.68156 19.2762 9.62191 19.3373C9.34137 19.6068 9.14052 19.7844 8.74145 19.8014C8.41067 19.7481 8.28655 19.7141 8.05326 19.4844C7.96744 19.3999 7.96744 19.3999 7.87988 19.3137C7.7944 19.2242 7.7944 19.2242 7.70719 19.1328C7.64748 19.0758 7.58778 19.0188 7.52626 18.9601C7.24211 18.6714 7.05397 18.4646 7.04492 18.0479C7.09196 17.7266 7.09196 17.7266 7.22929 17.5068C7.53626 17.3179 7.70337 17.3148 8.05875 17.375C8.28733 17.5289 8.4815 17.7058 8.67399 17.9023C8.99482 17.7676 9.19601 17.5753 9.43822 17.328C9.5543 17.2104 9.5543 17.2104 9.67271 17.0906C9.75281 17.0086 9.83292 16.9266 9.91544 16.8422C10.0748 16.6798 10.2343 16.5176 10.394 16.3557C10.4998 16.2476 10.4998 16.2476 10.6076 16.1373C10.9175 15.8401 11.151 15.8444 11.5744 15.8809Z" fill="#286996"/>
<path d="M38.3175 38.0671C38.7853 38.4935 38.9732 38.9596 39.009 39.5873C38.9916 39.8601 38.9111 40.0216 38.7326 40.2266C38.4818 40.3519 38.3077 40.3417 38.0295 40.3144C37.6947 40.1242 37.6055 40.0192 37.5021 39.6443C37.447 39.3304 37.447 39.3304 37.1835 39.2213C37.1146 39.205 37.0458 39.1887 36.9748 39.1719C36.7438 39.372 36.6315 39.4982 36.5353 39.7926C36.4348 40.0879 36.3728 40.176 36.0959 40.3144C35.8096 40.3502 35.6304 40.3412 35.3653 40.2266C35.1384 39.9576 35.1155 39.6871 35.1291 39.3476C35.2286 38.7368 35.5064 38.3025 36.008 37.9414C36.7428 37.5393 37.6346 37.5763 38.3175 38.0671Z" fill="#286996"/>
<path d="M27.3941 38.0293C27.8077 38.4167 28.1028 38.7715 28.1851 39.3476C28.1888 39.6834 28.1735 39.9603 27.9489 40.2266C27.6796 40.343 27.5095 40.356 27.2183 40.3144C26.8835 40.1242 26.7944 40.0192 26.691 39.6443C26.6358 39.3304 26.6358 39.3304 26.3724 39.2213C26.3035 39.205 26.2346 39.1887 26.1636 39.1719C25.9326 39.372 25.8203 39.4982 25.7242 39.7926C25.6236 40.0879 25.5616 40.176 25.2847 40.3144C25.0012 40.3499 24.8189 40.3394 24.5541 40.232C24.3137 39.9382 24.3029 39.6315 24.3179 39.2598C24.4439 38.6342 24.7817 38.2967 25.2847 37.9194C25.9241 37.5464 26.7839 37.6089 27.3941 38.0293Z" fill="#286996"/>
<path d="M30.3606 40.254C30.6622 40.3178 30.7907 40.4052 31.0363 40.5836C31.3142 40.7801 31.4061 40.8402 31.7559 40.8583C32.0663 40.7491 32.2617 40.6084 32.5191 40.4109C32.6677 40.3145 32.6677 40.3145 32.9424 40.2595C33.2927 40.3357 33.4231 40.4679 33.6345 40.7539C33.702 41.0362 33.6899 41.1887 33.5401 41.4392C33.1759 41.9061 32.7412 42.1494 32.1788 42.314C31.4916 42.3845 30.8386 42.333 30.261 41.924C29.7009 41.4421 29.7009 41.4421 29.6465 41.0341C29.6794 40.7539 29.6794 40.7539 29.8662 40.5012C30.1189 40.3145 30.1189 40.3145 30.3606 40.254Z" fill="#286996"/>
<path d="M29.4 31.7561C29.697 31.7604 29.7497 31.7735 29.9877 31.9758C30.144 32.2753 30.1819 32.4232 30.1196 32.7559C29.9032 33.0131 29.6958 33.1848 29.4164 33.3711C29.0948 33.3596 28.8817 33.3507 28.6309 33.1404C28.4972 32.8414 28.4921 32.6405 28.5375 32.3164C28.7518 32.0637 28.7518 32.0637 28.977 31.877C29.0649 31.7891 29.0649 31.7891 29.4 31.7561Z" fill="#286996"/>
<path d="M25.2881 31.7509C25.5572 31.8102 25.7119 31.9462 25.9006 32.1406C26.0349 32.4093 26.0089 32.6354 25.9885 32.9316C25.8951 33.1404 25.8951 33.1404 25.7248 33.2832C25.4262 33.3808 25.2247 33.4289 24.9359 33.2839C24.529 33.0009 24.529 33.0009 24.4065 32.7558C24.3708 32.4346 24.3876 32.2646 24.5383 31.9758C24.7912 31.7608 24.9579 31.7306 25.2881 31.7509Z" fill="#286996"/>
<path d="M27.7457 30.9102C27.9828 31.2659 27.9785 31.5475 27.9215 31.9649C27.7897 32.234 27.7897 32.234 27.5699 32.4043C27.3211 32.466 27.1156 32.466 26.8668 32.4043C26.622 32.2146 26.5345 32.0778 26.4823 31.7719C26.4642 31.4287 26.4693 31.2373 26.6746 30.9541C27.0737 30.6804 27.3059 30.7502 27.7457 30.9102Z" fill="#286996"/>
<path d="M16.9794 3.98265C17.0473 3.98197 17.1153 3.98129 17.1853 3.98059C17.4228 4.02447 17.4997 4.08287 17.6385 4.27928C17.6736 4.4688 17.6736 4.4688 17.6715 4.67479C17.6722 4.74277 17.6729 4.81075 17.6736 4.88078C17.6297 5.11827 17.5713 5.19517 17.3749 5.33397C17.1853 5.36899 17.1853 5.36899 16.9794 5.36693C16.9114 5.36761 16.8434 5.36829 16.7734 5.36899C16.5359 5.3251 16.459 5.26671 16.3202 5.0703C16.2852 4.88078 16.2852 4.88078 16.2872 4.67479C16.2865 4.60681 16.2859 4.53883 16.2852 4.4688C16.3598 4.06489 16.5959 3.97882 16.9794 3.98265Z" fill="#286996"/>
</g>
<defs>
<clipPath id="clip0_149_360">
<rect width="45" height="45" fill="white" transform="translate(0.5 0.5)"/>
</clipPath>
</defs>
</svg>
