<svg width="41" height="42" viewBox="0 0 41 42" fill="none" xmlns="http://www.w3.org/2000/svg">
<path d="M41 21C41 9.67816 31.8218 0.5 20.5 0.5C9.17816 0.5 0 9.67816 0 21C0 32.3218 9.17816 41.5 20.5 41.5C31.8218 41.5 41 32.3218 41 21Z" fill="url(#paint0_linear_149_263)"/>
<path fill-rule="evenodd" clip-rule="evenodd" d="M8.31602 33.7247C11.0793 29.8972 15.5788 27.4062 20.6602 27.4062C25.6606 27.4062 30.0977 29.8185 32.8711 33.5428C29.69 36.6806 25.3212 38.6172 20.5 38.6172C15.7727 38.6172 11.4802 36.7552 8.31602 33.7247ZM27.5469 16.9961C27.5469 20.9764 24.4636 24.2031 20.6602 24.2031C16.8567 24.2031 13.7734 20.9764 13.7734 16.9961C13.7734 13.0158 16.8567 9.78906 20.6602 9.78906C24.4636 9.78906 27.5469 13.0158 27.5469 16.9961Z" fill="white"/>
<defs>
<linearGradient id="paint0_linear_149_263" x1="20.5" y1="0.5" x2="20.5" y2="41.5" gradientUnits="userSpaceOnUse">
<stop offset="1" stop-color="#286996"/>
</linearGradient>
</defs>
</svg>
